:FULLY-SPECIFIED
:DEGREES
50
root 4.36494 16.4743 -2.95169 -2.55989 -85.2161 9.92605
lowerback -0.126441 -0.24315 0.051654
upperback 0.219913 -0.334688 1.39691
thorax 0.303929 -0.171813 1.39941
lowerneck -18.9373 -0.15117 -0.179909
upperneck 19.2661 -0.369797 0.577934
head 9.18732 -0.151384 0.174303
rclavicle 7.95139e-016 3.97569e-015
rhumerus -32.5906 -4.83402 -80.5213
rradius 20.5874
rwrist 31.0316
rhand -24.7127 2.22713
rfingers 7.12502
rthumb 1.78903 -27.7451
lclavicle 7.95139e-016 3.97569e-015
lhumerus -28.5927 6.33679 89.1523
lradius 16.9034
lwrist -20.0754
lhand -23.2897 1.88295
lfingers 7.12502
lthumb 3.16336 31.8392
rfemur -23.7083 8.11875 22.1619
rtibia 24.2887
rfoot -8.93397 -14.6455
rtoes -8.56981
lfemur -3.27815 -6.42733 -25.1255
ltibia 36.6943
lfoot -11.2808 -3.86299
ltoes -21.302
51
root 4.36347 16.4791 -2.97066 1.23668 -85.3477 6.22779
lowerback -0.145656 -0.0915017 0.388249
upperback 0.163598 -0.134504 1.47897
thorax 0.251706 -0.0714714 1.29548
lowerneck -18.9918 -0.194573 -0.18412
upperneck 19.3215 -0.435301 0.604156
head 9.21679 -0.179171 0.17528
rclavicle 3.18055e-015 -5.56597e-015
rhumerus -32.553 -4.90031 -80.4665
rradius 20.6556
rwrist 31.0856
rhand -24.6583 2.25705
rfingers 7.12502
rthumb 1.84162 -27.7147
lclavicle 3.18055e-015 -5.56597e-015
lhumerus -28.7621 5.97103 89.2427
lradius 17.0338
lwrist -20.0021
lhand -22.8884 1.99948
lfingers 7.12502
lthumb 3.55084 31.9496
rfemur -23.2719 8.41278 22.6529
rtibia 24.0616
rfoot -8.90935 -14.5511
rtoes -7.75931
lfemur -4.73012 -5.56875 -24.4255
ltibia 39.4564
lfoot -9.67972 -4.59735
ltoes -20.6697
52
root 4.36428 16.4792 -2.98762 5.34402 -85.4418 2.16184
lowerback -0.149433 0.0365498 0.764353
upperback 0.190521 0.0324695 1.57415
thorax 0.278274 0.0117383 1.18271
lowerneck -19.1457 -0.227801 -0.225239
upperneck 19.3397 -0.464707 0.593341
head 9.25104 -0.1961 0.174427
rclavicle -3.97569e-015 -1.98785e-015
rhumerus -32.4008 -4.62183 -80.5233
rradius 20.859
rwrist 30.9324
rhand -24.5848 1.97917
rfingers 7.12502
rthumb 1.91257 -27.992
lclavicle -3.97569e-015 -1.98785e-015
lhumerus -28.8085 5.83874 89.2832
lradius 17.1613
lwrist -19.842
lhand -22.5335 1.90237
lfingers 7.12502
lthumb 3.89361 31.8465
rfemur -22.7489 8.65364 23.164
rtibia 23.806
rfoot -8.78378 -14.3936
rtoes -5.48483
lfemur -6.19527 -4.89275 -23.7384
ltibia 42.304
lfoot -7.82246 -5.10879
ltoes -20.2855
53
root 4.3698 16.4727 -3.00297 9.18186 -85.4973 -1.61032
lowerback -0.130529 0.117523 1.11183
upperback 0.180376 0.138052 1.64839
thorax 0.256413 0.0643366 1.06434
lowerneck -19.2816 -0.220529 -0.163172
upperneck 19.3879 -0.45473 0.517737
head 9.29198 -0.194739 0.139402
rclavicle 1.59028e-015 9.54166e-015
rhumerus -32.1954 -4.57559 -80.5344
rradius 20.9007
rwrist 30.9578
rhand -24.6076 1.98646
rfingers 7.12502
rthumb 1.89052 -27.9849
lclavicle 1.59028e-015 9.54166e-015
lhumerus -28.9177 5.81129 89.2333
lradius 17.3319
lwrist -19.8696
lhand -22.2052 2.02438
lfingers 7.12502
lthumb 4.21061 31.9625
rfemur -22.269 8.75673 23.6652
rtibia 23.5616
rfoot -8.54541 -14.2241
rtoes -3.91381
lfemur -7.73249 -4.2915 -23.0852
ltibia 45.1893
lfoot -5.83874 -5.54321
ltoes -19.8319
54
root 4.37686 16.467 -3.01739 14.3472 -85.4842 -6.7442
lowerback -0.0490507 0.219598 1.57709
upperback 0.146919 0.27329 1.73807
thorax 0.17694 0.13129 0.895592
lowerneck -19.2554 -0.231813 -0.0919766
upperneck 19.333 -0.478205 0.466402
head 9.26795 -0.205962 0.106869
rclavicle 3.18055e-015 -2.74323e-014
rhumerus -32.0488 -4.31187 -80.6269
rradius 21.0305
rwrist 30.3782
rhand -24.6241 2.22934
rfingers 7.12502
rthumb 1.87462 -27.7422
lclavicle 3.18055e-015 -2.74323e-014
lhumerus -29.0738 5.41755 89.3209
lradius 17.5898
lwrist -19.3259
lhand -22.0837 2.00391
lfingers 7.12502
lthumb 4.32799 31.9397
rfemur -21.7632 8.84332 24.2802
rtibia 23.2499
rfoot -8.28159 -14.1935
rtoes -2.70608
lfemur -9.32503 -3.68878 -22.3256
ltibia 48.0891
lfoot -4.0427 -6.01501
ltoes -19.2941
55
root 4.38586 16.4647 -3.02996 18.2626 -85.4499 -10.6316
lowerback 0.0475946 0.247371 1.95037
upperback 0.137537 0.310746 1.81751
thorax 0.114661 0.149094 0.767574
lowerneck -19.2791 -0.18933 0.00301167
upperneck 19.2611 -0.429143 0.396677
head 9.24669 -0.183316 0.0738624
rclavicle -7.95139e-015 7.95139e-015
rhumerus -31.8155 -3.98812 -80.7524
rradius 21.1951
rwrist 29.9314
rhand -24.7006 2.33631
rfingers 7.12502
rthumb 1.80074 -27.6358
lclavicle -7.95139e-015 7.95139e-015
lhumerus -29.1929 5.41804 89.2837
lradius 17.786
lwrist -19.0006
lhand -22.0744 2.01673
lfingers 7.12502
lthumb 4.33692 31.9523
rfemur -21.2231 8.90364 24.78
rtibia 22.8837
rfoot -8.39977 -14.0913
rtoes -2.48071
lfemur -10.9363 -3.16997 -21.7124
ltibia 50.9437
lfoot -2.52487 -6.42492
ltoes -17.3327
56
root 4.39552 16.4625 -3.0417 22.7519 -85.3437 -15.1823
lowerback 0.241213 0.303521 2.42346
upperback 0.14231 0.389836 1.89874
thorax 0.0138244 0.187051 0.585051
lowerneck -19.254 -0.180832 0.0183551
upperneck 19.1396 -0.421402 0.40756
head 9.19992 -0.176685 0.0763198
rclavicle -1.43125e-014 -3.77691e-014
rhumerus -31.6409 -3.66169 -80.9018
rradius 21.4525
rwrist 29.4252
rhand -24.7908 2.26263
rfingers 7.12502
rthumb 1.71357 -27.7102
lclavicle -1.43125e-014 -3.77691e-014
lhumerus -29.3079 5.29938 89.2659
lradius 17.9556
lwrist -18.9927
lhand -22.1825 2.02217
lfingers 7.12502
lthumb 4.23255 31.9599
rfemur -20.5346 8.94921 25.3608
rtibia 22.4507
rfoot -8.45782 -13.9702
rtoes -2.09501
lfemur -12.5048 -2.68304 -21.0671
ltibia 53.6994
lfoot -1.60397 -6.76051
ltoes -16.9445
57
root 4.40815 16.4572 -3.0548 27.5235 -85.1247 -20.0635
lowerback 0.485814 0.323305 2.89436
upperback 0.167059 0.423275 2.02933
thorax -0.0950827 0.201315 0.454134
lowerneck -19.1632 -0.149873 0.0850454
upperneck 18.9727 -0.38872 0.380961
head 9.12544 -0.159075 0.0608086
rclavicle -2.38542e-015 -7.95139e-015
rhumerus -31.3387 -3.35258 -80.9661
rradius 21.5513
rwrist 29.5285
rhand -24.8691 2.13664
rfingers 7.12502
rthumb 1.63801 -27.8368
lclavicle -2.38542e-015 -7.95139e-015
lhumerus -29.3655 5.20732 89.2842
lradius 18.0943
lwrist -18.722
lhand -22.4256 1.97077
lfingers 7.12502
lthumb 3.99779 31.913
rfemur -19.8322 8.89928 26.047
rtibia 22.0415
rfoot -8.57465 -13.9155
rtoes -1.86138
lfemur -14.0572 -2.24787 -20.3421
ltibia 56.2991
lfoot -1.45404 -6.69169
ltoes -17.3232
58
root 4.42333 16.4504 -3.06464 31.0599 -84.8625 -23.7116
lowerback 0.707772 0.323316 3.35757
upperback 0.222519 0.430699 2.14264
thorax -0.159814 0.202908 0.310313
lowerneck -19.0925 -0.148779 0.0971955
upperneck 18.7665 -0.387605 0.387319
head 9.04141 -0.156199 0.0614498
rclavicle 8.74653e-015 3.06128e-014
rhumerus -31.0164 -3.16463 -80.9954
rradius 21.6892
rwrist 29.4541
rhand -25.1889 2.01552
rfingers 7.12502
rthumb 1.32908 -27.9601
lclavicle 8.74653e-015 3.06128e-014
lhumerus -29.3502 5.03049 89.3683
lradius 18.244
lwrist -18.3169
lhand -22.7597 2.02241
lfingers 7.12502
lthumb 3.6752 31.9705
rfemur -19.1301 8.76388 26.6699
rtibia 21.6661
rfoot -8.67236 -13.8764
rtoes -2.15201
lfemur -15.5322 -1.98254 -19.7464
ltibia 58.6931
lfoot -2.05562 -6.04977
ltoes -17.1746
59
root 4.44111 16.4413 -3.0763 33.5696 -84.5658 -26.3956
lowerback 1.01769 0.313046 3.75811
upperback 0.280035 0.431214 2.23697
thorax -0.272131 0.200452 0.181821
lowerneck -19.0499 -0.155951 0.144317
upperneck 18.6297 -0.406865 0.381471
head 8.98654 -0.161958 0.0493588
rclavicle -6.36111e-015 -3.97569e-014
rhumerus -30.675 -2.83428 -81.0895
rradius 21.8052
rwrist 29.2102
rhand -25.3319 2.01569
rfingers 7.12502
rthumb 1.19101 -27.9607
lclavicle -6.36111e-015 -3.97569e-014
lhumerus -29.3107 4.8728 89.4066
lradius 18.2611
lwrist -18.1572
lhand -23.2571 1.83913
lfingers 7.12502
lthumb 3.1948 31.7949
rfemur -18.4231 8.62872 27.2367
rtibia 21.3907
rfoot -8.96581 -13.8761
rtoes -2.23981
lfemur -16.9414 -1.79151 -19.2281
ltibia 60.8204
lfoot -2.77698 -5.06448
ltoes -16.8585
60
root 4.46012 16.4321 -3.08714 35.1285 -84.3305 -28.1836
lowerback 1.39982 0.296393 4.00313
upperback 0.356548 0.427712 2.33539
thorax -0.406752 0.195786 0.144229
lowerneck -19.0293 -0.145047 0.200678
upperneck 18.4953 -0.399236 0.355746
head 8.93636 -0.156627 0.0324999
rclavicle -7.95139e-015 -1.39149e-014
rhumerus -30.3006 -2.60319 -81.0997
rradius 21.9123
rwrist 28.9533
rhand -25.609 2.04348
rfingers 7.12502
rthumb 0.923411 -27.9343
lclavicle -7.95139e-015 -1.39149e-014
lhumerus -29.2487 4.95073 89.4
lradius 18.2568
lwrist -18.2936
lhand -23.8411 1.78341
lfingers 7.12502
lthumb 2.63081 31.7469
rfemur -17.7217 8.47234 27.7253
rtibia 21.2468
rfoot -9.24898 -13.9159
rtoes -2.56756
lfemur -18.2868 -1.61571 -18.8549
ltibia 62.6626
lfoot -3.58224 -3.7406
ltoes -16.6394
61
root 4.47783 16.425 -3.09756 35.4918 -84.1448 -28.7609
lowerback 1.68821 0.282294 4.12099
upperback 0.472649 0.420793 2.39747
thorax -0.448932 0.19156 0.141121
lowerneck -18.995 -0.157213 0.178502
upperneck 18.3245 -0.425143 0.4429
head 8.87187 -0.16005 0.0627784
rclavicle -2.70347e-014 -2.5842e-014
rhumerus -29.8237 -2.54964 -81.0471
rradius 21.9184
rwrist 28.8839
rhand -25.7983 2.15794
rfingers 7.12502
rthumb 0.740543 -27.8205
lclavicle -2.70347e-014 -2.5842e-014
lhumerus -29.0827 5.12878 89.3746
lradius 18.2128
lwrist -18.4805
lhand -24.3793 1.89509
lfingers 7.12502
lthumb 2.11101 31.8644
rfemur -17.0669 8.36415 28.0609
rtibia 21.1816
rfoot -9.54424 -13.9536
rtoes -2.68529
lfemur -19.5578 -1.54212 -18.6689
ltibia 64.1629
lfoot -4.45418 -2.38285
ltoes -16.2262
62
root 4.49904 16.4156 -3.10859 35.67 -83.9498 -29.1103
lowerback 2.00363 0.260343 4.19194
upperback 0.541865 0.407183 2.468
thorax -0.554984 0.182663 0.172866
lowerneck -18.9368 -0.173684 0.159549
upperneck 18.1889 -0.455723 0.516124
head 8.81527 -0.167401 0.0870607
rclavicle -2.38542e-015 -1.39149e-014
rhumerus -29.4456 -2.4117 -80.9994
rradius 21.9729
rwrist 29.1914
rhand -26.067 1.92903
rfingers 7.12502
rthumb 0.481033 -28.0502
lclavicle -2.38542e-015 -1.39149e-014
lhumerus -28.9147 5.19965 89.4022
lradius 18.1014
lwrist -18.5267
lhand -24.9217 1.90053
lfingers 7.12502
lthumb 1.58716 31.8744
rfemur -16.5395 8.31158 28.3646
rtibia 21.2182
rfoot -9.9493 -14.1489
rtoes -2.57786
lfemur -20.91 -1.53231 -18.4997
ltibia 65.3777
lfoot -5.33006 -1.3241
ltoes -16.0447
63
root 4.51683 16.4106 -3.12065 35.4641 -83.7892 -29.0962
lowerback 2.26925 0.258249 4.19668
upperback 0.631985 0.415396 2.517
thorax -0.611359 0.185885 0.21928
lowerneck -18.8982 -0.228621 0.125752
upperneck 18.1024 -0.540629 0.610301
head 8.77939 -0.199155 0.113793
rclavicle -6.36111e-015 -1.07344e-014
rhumerus -29.0383 -2.53788 -80.8792
rradius 21.9771
rwrist 29.2336
rhand -26.329 1.94317
rfingers 7.12502
rthumb 0.227948 -28.0364
lclavicle -6.36111e-015 -1.07344e-014
lhumerus -28.7286 5.19128 89.4511
lradius 18.015
lwrist -18.464
lhand -25.3053 1.84147
lfingers 7.12502
lthumb 1.21675 31.8177
rfemur -16.0263 8.31679 28.622
rtibia 21.4008
rfoot -10.4199 -14.3292
rtoes -2.54505
lfemur -22.1343 -1.61159 -18.4031
ltibia 66.2373
lfoot -6.37354 -0.414097
ltoes -15.354
64
root 4.53616 16.4018 -3.13268 34.7949 -83.7251 -28.5069
lowerback 2.3867 0.283225 4.09188
upperback 0.719194 0.449136 2.52768
thorax -0.587651 0.2037 0.287401
lowerneck -18.9021 -0.288545 0.0634893
upperneck 18.0571 -0.635305 0.751702
head 8.76559 -0.232249 0.159939
rclavicle -1.66979e-014 -2.82274e-014
rhumerus -28.5883 -2.80491 -80.7335
rradius 21.9812
rwrist 29.421
rhand -26.3579 1.88196
rfingers 7.12502
rthumb 0.200061 -28.0977
lclavicle -1.66979e-014 -2.82274e-014
lhumerus -28.5015 5.0987 89.5093
lradius 17.9638
lwrist -18.4223
lhand -25.6217 1.8406
lfingers 7.12502
lthumb 0.911154 31.8184
rfemur -15.7015 8.45447 28.7496
rtibia 21.67
rfoot -11.0717 -14.6789
rtoes -2.31396
lfemur -23.4262 -1.74814 -18.4445
ltibia 66.8212
lfoot -7.42091 0.463887
ltoes -14.6768
